<svg xmlns="http://www.w3.org/2000/svg" viewBox="0 0 64 64" aria-labelledby="title"
aria-describedby="desc" role="img" xmlns:xlink="http://www.w3.org/1999/xlink">
  <title>Schoolbooks</title>
  <desc>A solid styled icon from Orion Icon Library.</desc>
  <path data-name="layer3"
  d="M5 18a4 4 0 0 0 4 4h38v42H9a4 4 0 0 1-4-4V18" fill="#00adb5"></path>
  <path data-name="layer2" d="M9 16a2 2 0 0 0 2 2h32v-4H11a2 2 0 0 0-2 2z"
  fill="#eeeeee"></path>
  <path data-name="layer1" d="M21 2a2 2 0 0 0 2 2h32V0H23a2 2 0 0 0-2 2zm34 6H21a4 4 0 0 1-4-4v6h30v8h4v32h8V8z"
  fill="#393e46"></path>
</svg>